<svg xmlns="http://www.w3.org/2000/svg" xmlns:xlink="http://www.w3.org/1999/xlink" width="500" zoomAndPan="magnify" viewBox="0 0 375 374.999991" height="500" preserveAspectRatio="xMidYMid meet" version="1.0"><defs><clipPath id="14db79ca83"><path d="M 156.839844 155.492188 L 180.402344 155.492188 L 180.402344 163.980469 L 156.839844 163.980469 Z M 156.839844 155.492188 " clip-rule="nonzero"/></clipPath><clipPath id="acdf253c15"><path d="M 0.839844 0.492188 L 24.402344 0.492188 L 24.402344 8.980469 L 0.839844 8.980469 Z M 0.839844 0.492188 " clip-rule="nonzero"/></clipPath><clipPath id="54a4c0e96d"><rect x="0" width="25" y="0" height="9"/></clipPath><clipPath id="78422af00c"><path d="M 186 19 L 349.160156 19 L 349.160156 356 L 186 356 Z M 186 19 " clip-rule="nonzero"/></clipPath></defs><g clip-path="url(#14db79ca83)"><g transform="matrix(1, 0, 0, 1, 156, 155)"><g clip-path="url(#54a4c0e96d)"><g clip-path="url(#acdf253c15)"><path fill="#ffffff" d="M 24.402344 0.492188 L 24.402344 8.980469 L 0.832031 8.980469 L 0.832031 0.492188 Z M 24.402344 0.492188 " fill-opacity="1" fill-rule="nonzero"/></g></g></g></g><path fill="#000000" d="M 94.945312 296.0625 C 93.933594 298.835938 95.320312 301.988281 98.058594 303 C 100.835938 304.011719 103.910156 302.550781 104.960938 299.773438 C 110.398438 285.335938 126.597656 277.949219 141.109375 283.351562 C 143.921875 284.363281 146.960938 282.898438 148.007812 280.125 C 149.058594 277.351562 147.710938 274.273438 144.898438 273.226562 C 124.835938 265.800781 102.445312 276.039062 94.945312 296.0625 Z M 94.945312 296.0625 " fill-opacity="1" fill-rule="nonzero"/><path fill="#000000" d="M 164.023438 23.773438 C 156.671875 18.976562 147.371094 18.675781 136.570312 22.761719 C 135.710938 23.023438 117.746094 29.4375 106.085938 40.460938 C 105.335938 40.425781 104.660156 40.3125 103.910156 40.3125 C 82.496094 40.3125 65.132812 57.710938 65.132812 79.164062 C 65.132812 84.261719 66.148438 89.210938 68.097656 93.863281 C 49.160156 99.074219 35.210938 116.175781 35.210938 136.726562 C 35.210938 140.625 35.921875 144.449219 36.859375 148.199219 C 23.320312 156.148438 14.734375 170.738281 14.734375 186.636719 C 14.734375 198.113281 19.160156 208.460938 26.359375 216.375 C 23.734375 222.148438 22.234375 228.449219 22.234375 234.898438 C 22.234375 252.863281 33.148438 268.875 49.273438 275.851562 C 47.660156 280.085938 46.796875 284.699219 46.796875 289.3125 C 46.796875 310.761719 64.195312 328.125 85.648438 328.125 C 86.621094 328.125 87.671875 327.898438 88.722656 327.824219 C 94.570312 343.875 111.933594 355.164062 132.148438 355.164062 C 157.273438 355.164062 177.746094 337.726562 177.746094 316.351562 L 177.746094 278.398438 C 177.746094 278.398438 177.746094 278.398438 177.746094 278.324219 L 177.746094 134.738281 C 177.746094 134.738281 177.746094 134.738281 177.746094 134.699219 L 177.746094 134.664062 L 177.710938 50.738281 C 177.710938 49.988281 176.546875 31.949219 164.023438 23.773438 Z M 167.023438 108.074219 C 159.972656 100.613281 149.996094 95.886719 138.898438 95.886719 C 135.933594 95.886719 133.535156 98.289062 133.535156 101.25 C 133.535156 104.175781 135.933594 106.613281 138.898438 106.613281 C 154.421875 106.613281 167.023438 119.210938 167.023438 134.738281 L 167.023438 251.773438 C 159.972656 244.3125 149.996094 239.550781 138.898438 239.550781 C 135.933594 239.511719 133.535156 241.914062 133.535156 244.835938 C 133.535156 247.835938 135.933594 250.199219 138.898438 250.199219 C 154.421875 250.199219 167.023438 262.875 167.023438 278.324219 L 167.023438 316.351562 C 167.023438 331.800781 151.421875 344.476562 132.148438 344.476562 C 115.085938 344.476562 100.570312 334.574219 97.757812 321.039062 C 97.121094 318.148438 94.234375 316.351562 91.347656 316.835938 C 91.347656 316.835938 91.308594 316.835938 91.273438 316.835938 C 89.433594 317.289062 87.558594 317.4375 85.648438 317.4375 C 70.121094 317.4375 57.484375 304.835938 57.484375 289.3125 C 57.484375 284.398438 58.796875 279.636719 61.195312 275.398438 C 61.347656 275.175781 61.382812 274.875 61.460938 274.574219 C 61.496094 274.425781 61.648438 274.351562 61.757812 274.199219 C 61.757812 274.050781 61.757812 273.824219 61.757812 273.601562 C 61.796875 273.375 61.796875 273.148438 61.796875 272.851562 C 61.796875 272.398438 61.796875 271.988281 61.757812 271.613281 C 61.648438 271.351562 61.570312 271.125 61.460938 270.9375 C 61.308594 270.488281 61.160156 270.1875 60.898438 269.851562 C 60.785156 269.585938 60.558594 269.398438 60.371094 269.175781 C 60.070312 268.875 59.773438 268.648438 59.507812 268.351562 C 59.359375 268.273438 59.320312 268.199219 59.171875 268.125 C 58.984375 267.976562 58.722656 267.976562 58.460938 267.863281 C 58.308594 267.789062 58.160156 267.710938 57.972656 267.636719 C 43.234375 263.585938 32.996094 250.125 32.996094 234.898438 C 32.996094 231.148438 33.820312 227.4375 35.023438 223.988281 C 42.035156 228.523438 50.359375 231.300781 59.359375 231.300781 C 62.285156 231.300781 64.722656 228.898438 64.722656 225.9375 C 64.722656 222.9375 62.285156 220.5 59.359375 220.5 C 40.609375 220.5 25.460938 205.3125 25.460938 186.601562 C 25.460938 173.4375 33.148438 161.4375 45.070312 155.851562 L 45.109375 155.851562 C 45.183594 155.8125 45.257812 155.738281 45.335938 155.699219 C 49.757812 153.710938 54.484375 152.699219 59.359375 152.699219 C 62.285156 152.699219 64.722656 150.300781 64.722656 147.335938 C 64.722656 144.375 62.285156 142.050781 59.359375 142.050781 C 55.007812 142.050781 50.882812 142.835938 46.796875 144.039062 C 46.273438 141.636719 45.898438 139.199219 45.898438 136.726562 C 45.898438 118.011719 61.160156 102.824219 79.835938 102.824219 C 92.773438 102.824219 104.359375 109.988281 110.171875 121.574219 C 111.523438 124.238281 114.710938 125.25 117.371094 123.9375 C 119.996094 122.625 121.085938 119.4375 119.734375 116.773438 C 112.121094 101.550781 96.859375 92.101562 79.835938 92.101562 C 79.648438 92.101562 79.496094 92.136719 79.273438 92.136719 C 77.132812 88.125 75.820312 83.738281 75.820312 79.125 C 75.820312 63.601562 88.421875 51 103.945312 51 C 114.148438 51 123.558594 56.550781 128.546875 65.476562 C 130.796875 69.636719 132.035156 74.363281 132.035156 79.125 C 132.035156 82.050781 134.472656 84.488281 137.398438 84.488281 C 140.359375 84.488281 142.796875 82.050781 142.796875 79.125 C 142.796875 72.523438 141.109375 66 137.921875 60.300781 C 133.609375 52.648438 127.046875 46.875 119.285156 43.5 C 128.808594 36.898438 139.945312 32.925781 140.171875 32.8125 C 147.785156 29.960938 153.859375 29.925781 158.171875 32.738281 C 166.046875 37.875 167.023438 51.039062 167.023438 51.039062 Z M 167.023438 108.074219 " fill-opacity="1" fill-rule="nonzero"/><path fill="#000000" d="M 109.160156 160.351562 C 108.632812 157.5 105.820312 155.585938 102.898438 156.148438 C 99.972656 156.710938 98.132812 159.523438 98.695312 162.414062 C 100.722656 173.175781 106.421875 182.585938 114.523438 189.75 C 114.335938 190.425781 114.222656 191.101562 114.257812 191.8125 C 115.160156 207.300781 103.347656 220.6875 87.898438 221.625 C 84.898438 221.773438 82.683594 224.324219 82.835938 227.25 C 83.023438 230.101562 85.382812 232.3125 88.195312 232.3125 C 88.273438 232.3125 88.382812 232.3125 88.570312 232.3125 C 107.996094 231.148438 123.109375 215.699219 124.722656 196.761719 C 131.546875 200.210938 138.972656 202.011719 146.546875 202.011719 C 149.660156 202.011719 152.773438 201.75 155.808594 201.148438 C 158.660156 200.625 160.570312 197.8125 160.046875 194.886719 C 159.523438 192.039062 156.597656 190.085938 153.785156 190.648438 C 143.734375 192.601562 133.609375 190.5 125.246094 184.761719 C 116.773438 179.023438 111.070312 170.363281 109.160156 160.351562 Z M 109.160156 160.351562 " fill-opacity="1" fill-rule="nonzero"/><path fill="#000000" d="M 219.671875 273.261719 C 216.933594 274.273438 215.546875 277.351562 216.558594 280.164062 C 217.535156 282.9375 220.683594 284.398438 223.460938 283.386719 C 237.972656 277.949219 254.210938 285.375 259.648438 299.8125 C 260.660156 302.550781 263.734375 304.011719 266.507812 303 C 269.320312 301.988281 270.671875 298.835938 269.621094 296.023438 C 262.195312 276.039062 239.734375 265.800781 219.671875 273.261719 Z M 219.671875 273.261719 " fill-opacity="1" fill-rule="nonzero"/><g clip-path="url(#78422af00c)"><path fill="#000000" d="M 349.871094 186.636719 C 349.871094 170.738281 341.285156 156.148438 327.710938 148.199219 C 328.648438 144.449219 329.359375 140.625 329.359375 136.726562 C 329.359375 116.210938 315.410156 99.074219 296.546875 93.863281 C 298.421875 89.210938 299.472656 84.261719 299.472656 79.164062 C 299.472656 57.75 282.070312 40.3125 260.660156 40.3125 C 259.945312 40.3125 259.273438 40.425781 258.484375 40.460938 C 246.820312 29.4375 228.820312 23.023438 228.035156 22.761719 C 217.195312 18.675781 207.898438 18.976562 200.546875 23.773438 C 188.058594 31.949219 186.898438 49.988281 186.898438 50.738281 L 186.859375 134.664062 L 186.859375 134.699219 C 186.859375 134.699219 186.859375 134.738281 186.859375 134.738281 L 186.859375 278.324219 C 186.859375 278.398438 186.859375 278.398438 186.859375 278.398438 L 186.859375 316.351562 C 186.859375 337.726562 207.335938 355.164062 232.460938 355.164062 C 252.671875 355.164062 270.035156 343.875 275.847656 327.824219 C 276.898438 327.898438 277.945312 328.125 278.921875 328.125 C 300.335938 328.125 317.773438 310.761719 317.773438 289.3125 C 317.773438 284.699219 316.910156 280.085938 315.296875 275.851562 C 331.496094 268.875 342.335938 252.824219 342.335938 234.898438 C 342.335938 228.449219 340.910156 222.148438 338.246094 216.375 C 345.445312 208.460938 349.871094 198.113281 349.871094 186.636719 Z M 306.597656 267.636719 C 306.410156 267.710938 306.296875 267.789062 306.109375 267.863281 C 305.882812 267.976562 305.585938 267.976562 305.398438 268.125 C 305.246094 268.199219 305.210938 268.273438 305.058594 268.351562 C 304.757812 268.648438 304.496094 268.875 304.234375 269.175781 C 304.007812 269.398438 303.785156 269.585938 303.671875 269.8125 C 303.410156 270.1875 303.296875 270.488281 303.109375 270.9375 C 303.035156 271.125 302.921875 271.351562 302.847656 271.648438 C 302.773438 272.023438 302.773438 272.4375 302.773438 272.886719 C 302.773438 273.1875 302.773438 273.414062 302.847656 273.636719 C 302.847656 273.863281 302.773438 274.085938 302.847656 274.238281 C 302.921875 274.386719 303.070312 274.460938 303.109375 274.613281 C 303.257812 274.875 303.257812 275.175781 303.410156 275.398438 C 305.773438 279.636719 307.121094 284.398438 307.121094 289.3125 C 307.121094 304.835938 294.410156 317.4375 278.921875 317.4375 C 277.007812 317.4375 275.132812 317.289062 273.296875 316.835938 L 273.222656 316.835938 C 270.371094 316.3125 267.484375 318.148438 266.847656 321 C 264.035156 334.574219 249.523438 344.476562 232.460938 344.476562 C 213.148438 344.476562 197.546875 331.800781 197.546875 316.351562 L 197.546875 278.324219 C 197.546875 262.875 210.183594 250.199219 225.671875 250.199219 C 228.632812 250.199219 231.070312 247.835938 231.070312 244.835938 C 231.070312 241.914062 228.671875 239.476562 225.671875 239.476562 C 214.570312 239.476562 204.597656 244.238281 197.546875 251.699219 L 197.546875 134.699219 C 197.546875 119.175781 210.183594 106.574219 225.671875 106.574219 C 228.632812 106.574219 231.070312 104.175781 231.070312 101.210938 C 231.070312 98.25 228.671875 95.8125 225.671875 95.8125 C 214.570312 95.8125 204.597656 100.539062 197.546875 108 L 197.546875 51.039062 C 197.546875 51.039062 198.484375 37.875 206.472656 32.738281 C 210.710938 29.925781 216.820312 29.960938 224.433594 32.8125 C 224.660156 32.925781 235.796875 36.898438 245.320312 43.5 C 237.558594 46.875 230.921875 52.648438 226.683594 60.300781 C 223.535156 66.039062 221.847656 72.5625 221.847656 79.125 C 221.847656 82.050781 224.210938 84.488281 227.210938 84.488281 C 230.171875 84.488281 232.570312 82.050781 232.570312 79.125 C 232.570312 74.363281 233.773438 69.636719 236.097656 65.476562 C 241.007812 56.585938 250.421875 51.039062 260.660156 51.039062 C 276.148438 51.039062 288.785156 63.636719 288.785156 79.164062 C 288.785156 83.773438 287.433594 88.164062 285.335938 92.175781 C 285.109375 92.175781 284.921875 92.136719 284.734375 92.136719 C 267.710938 92.136719 252.445312 101.550781 244.835938 116.8125 C 243.523438 119.4375 244.570312 122.625 247.234375 123.9375 C 249.859375 125.25 253.046875 124.199219 254.398438 121.574219 C 260.171875 109.988281 271.796875 102.824219 284.734375 102.824219 C 303.410156 102.824219 318.671875 118.011719 318.671875 136.726562 C 318.671875 139.199219 318.257812 141.636719 317.773438 144.039062 C 313.757812 142.835938 309.632812 142.050781 305.210938 142.050781 C 302.285156 142.050781 299.808594 144.414062 299.808594 147.375 C 299.808594 150.335938 302.285156 152.738281 305.210938 152.738281 C 310.121094 152.738281 314.808594 153.75 319.195312 155.738281 C 319.308594 155.773438 319.382812 155.851562 319.460938 155.886719 L 319.535156 155.886719 C 331.460938 161.4375 339.109375 173.476562 339.109375 186.636719 C 339.109375 205.351562 323.921875 220.539062 305.210938 220.539062 C 302.285156 220.539062 299.808594 222.9375 299.808594 225.976562 C 299.808594 228.898438 302.246094 231.335938 305.210938 231.335938 C 314.210938 231.335938 322.535156 228.5625 329.507812 224.023438 C 330.785156 227.398438 331.570312 231.148438 331.570312 234.898438 C 331.570312 250.125 321.335938 263.585938 306.597656 267.636719 Z M 306.597656 267.636719 " fill-opacity="1" fill-rule="nonzero"/></g><path fill="#000000" d="M 276.746094 221.625 C 261.257812 220.6875 249.445312 207.300781 250.308594 191.8125 C 250.382812 191.101562 250.273438 190.425781 250.046875 189.75 C 258.183594 182.625 263.847656 173.210938 265.910156 162.414062 C 266.507812 159.523438 264.632812 156.710938 261.710938 156.148438 C 258.746094 155.585938 255.933594 157.5 255.410156 160.351562 C 253.460938 170.363281 247.757812 179.023438 239.359375 184.761719 C 230.921875 190.5 220.796875 192.601562 210.820312 190.648438 C 208.007812 190.085938 205.046875 192.039062 204.523438 194.886719 C 203.996094 197.8125 205.910156 200.625 208.835938 201.1875 C 211.910156 201.75 214.984375 202.050781 218.058594 202.050781 C 225.632812 202.050781 233.097656 200.25 239.882812 196.800781 C 241.496094 215.699219 256.570312 231.1875 276.070312 232.351562 C 276.222656 232.351562 276.296875 232.351562 276.371094 232.351562 C 279.222656 232.351562 281.585938 230.136719 281.773438 227.289062 C 281.882812 224.324219 279.710938 221.773438 276.746094 221.625 Z M 276.746094 221.625 " fill-opacity="1" fill-rule="nonzero"/></svg>