<svg xmlns="http://www.w3.org/2000/svg" viewBox="0 0 100 100">
  <defs>
    <style>
      .brain { fill: #2D5F3F; }
    </style>
  </defs>
  <!-- Brain icon -->
  <path class="brain" d="M50,15 C40,15 32,23 32,33 C28,33 25,36 25,40 C25,42 26,44 27,45 C24,47 22,50 22,54 C22,59 26,63 31,63 C31,68 33,72 37,75 C37,78 39,80 42,80 L58,80 C61,80 63,78 63,75 C67,72 69,68 69,63 C74,63 78,59 78,54 C78,50 76,47 73,45 C74,44 75,42 75,40 C75,36 72,33 68,33 C68,23 60,15 50,15 Z M45,25 C43,25 42,26 42,28 C42,30 43,31 45,31 C47,31 48,30 48,28 C48,26 47,25 45,25 Z M55,25 C53,25 52,26 52,28 C52,30 53,31 55,31 C57,31 58,30 58,28 C58,26 57,25 55,25 Z M35,40 C35,42 37,45 40,46 C38,48 37,50 37,53 L35,53 C33,53 32,54 32,56 C32,58 33,59 35,59 L37,59 C37,62 39,65 42,67 L42,72 L58,72 L58,67 C61,65 63,62 63,59 L65,59 C67,59 68,58 68,56 C68,54 67,53 65,53 L63,53 C63,50 62,48 60,46 C63,45 65,42 65,40 C65,38 64,37 62,37 C60,37 58,38 58,40 C58,42 57,44 55,45 L45,45 C43,44 42,42 42,40 C42,38 40,37 38,37 C36,37 35,38 35,40 Z"/>
</svg>
