<svg xmlns="http://www.w3.org/2000/svg" viewBox="0 0 100 100">
  <!-- Background circle -->
  <circle cx="50" cy="50" r="50" fill="#F5F3ED"/>
  <!-- Brain icon -->
  <path fill="#2D5F3F" d="M50,20 C42,20 35,26 35,35 C31,35 28,38 28,42 C28,44 29,46 30,47 C27,49 25,52 25,56 C25,61 29,65 34,65 C34,70 36,74 40,77 C40,80 42,82 45,82 L55,82 C58,82 60,80 60,77 C64,74 66,70 66,65 C71,65 75,61 75,56 C75,52 73,49 70,47 C71,46 72,44 72,42 C72,38 69,35 65,35 C65,26 58,20 50,20 Z M46,28 C44,28 43,29 43,31 C43,33 44,34 46,34 C48,34 49,33 49,31 C49,29 48,28 46,28 Z M54,28 C52,28 51,29 51,31 C51,33 52,34 54,34 C56,34 57,33 57,31 C57,29 56,28 54,28 Z M38,42 C38,44 40,47 43,48 C41,50 40,52 40,55 L38,55 C36,55 35,56 35,58 C35,60 36,61 38,61 L40,61 C40,64 42,67 45,69 L45,74 L55,74 L55,69 C58,67 60,64 60,61 L62,61 C64,61 65,60 65,58 C65,56 64,55 62,55 L60,55 C60,52 59,50 57,48 C60,47 62,44 62,42 C62,40 61,39 59,39 C57,39 55,40 55,42 C55,44 54,46 52,47 L48,47 C46,46 45,44 45,42 C45,40 43,39 41,39 C39,39 38,40 38,42 Z"/>
</svg>
